<svg version="1.1" width="1440" height="1440" viewBox="0 0 1440 1440" xmlns="http://www.w3.org/2000/svg">
  <defs>
    <clipPath id="cp3"><path d="M0,1080H1080V0H0Z" transform="translate(-134.7,-697.9)"/></clipPath>
    <clipPath id="cp5"><path d="M0,1080H1080V0H0Z" transform="translate(-427.5,-696.8)"/></clipPath>
    <clipPath id="cp7"><path d="M0,1080H1080V0H0Z" transform="translate(-734.8,-544.5)"/></clipPath>
  </defs>
  <g fill="#ffffff">
    <text transform="matrix(1.3333333,0,0,1.3333333,362.31773,914.6708)" style="font-family:serif; font-size:51.0353px">
      BEAUTY SALON &amp; SPA
    </text>
    <path d="m 0,0 h 163.985 l 17.5,-58.205 h -1.556 l -1.167,3.63 c -5.013,15.641 -14.174,28.28 -27.482,37.917 -13.309,9.635 -28.217,14.454 -44.723,14.454 H 37.983 37.852 v -114.335 h 77.131 c 6.654,0 11.969,2.678 15.945,8.037 3.974,5.357 5.012,11.191 3.111,17.5 l -0.777,2.463 h 2.204 l 17.5,-58.204 h -2.205 l -0.647,2.074 c -2.421,7.691 -6.87,13.935 -13.353,18.732 -6.48,4.796 -13.785,7.194 -21.907,7.194 H 37.852 V -218.3 c 0,-4.235 1.446,-7.843 4.343,-10.824 2.894,-2.982 6.459,-4.602 10.695,-4.861 l 5.315,-0.389 v -1.037 H 0 v 1.037 l 5.445,0.389 c 4.233,0.259 7.777,1.879 10.629,4.861 2.852,2.981 4.279,6.589 4.279,10.824 v 99.557 H 10.63 v 2.204 h 9.723 V -17.5 c 0,4.32 -1.492,8.037 -4.473,11.148 C 12.898,-3.241 9.289,-1.6 5.055,-1.426 L 0,-1.167 Z" transform="matrix(1.3333333,0,0,-1.3333333,179.57707,509.41187)" clip-path="url(#cp3)" />
    <path d="M 0,0 V 1.167 H 50.037 V 0 c -3.457,-0.174 -6.352,-1.491 -8.685,-3.954 -2.333,-2.463 -3.5,-5.424 -3.5,-8.88 v -148.817 c 0,-13.137 -3.241,-25.278 -9.722,-36.426 -6.482,-11.149 -15.297,-19.964 -26.445,-26.445 -11.149,-6.482 -23.291,-9.723 -36.426,-9.723 -13.139,0 -25.279,3.241 -36.427,9.723 -11.149,6.481 -19.964,15.296 -26.445,26.445 -6.482,11.148 -9.722,23.289 -9.722,36.426 v 145.577 c 0,4.233 -1.449,7.885 -4.344,10.954 -2.896,3.066 -6.461,4.687 -10.693,4.861 L -127.688,0 v 1.167 h 58.205 V 0 l -5.315,-0.259 c -4.236,-0.174 -7.8,-1.795 -10.695,-4.861 -2.897,-3.069 -4.342,-6.721 -4.342,-10.954 v -160.873 c 0,-15.212 5.399,-28.195 16.204,-38.955 10.802,-10.759 23.765,-16.139 38.89,-16.139 15.121,0 28.064,5.38 38.824,16.139 10.759,10.76 16.14,23.743 16.14,38.955 v 160.873 c 0,4.233 -1.427,7.885 -4.279,10.954 -2.852,3.066 -6.396,4.687 -10.63,4.861 z" transform="matrix(1.3333333,0,0,-1.3333333,569.97347,510.96747)" clip-path="url(#cp5)" />
    <path d="M 0,0 C 0.778,0.172 1.923,0.344 3.436,0.519 4.946,0.691 6.092,0.863 6.871,1.037 6.611,1.209 5.595,1.815 3.824,2.852 2.052,3.889 -0.13,5.163 -2.723,6.676 c -2.592,1.511 -4.883,2.83 -6.87,3.954 -2.248,1.037 -4.495,2.159 -6.741,3.37 V -1.556 C -12.445,-1.296 -7,-0.778 0,0 M 41.352,151.54 H -16.334 V 18.667 L -0.778,10.5 C 0.778,9.722 2.441,8.9 4.213,8.037 5.983,7.172 7.95,6.2 10.111,5.12 c 2.16,-1.081 3.802,-1.924 4.926,-2.527 3.975,0.777 7.993,1.685 12.057,2.722 7.69,2.333 15.101,5.27 22.231,8.815 7.129,3.542 14.13,8.037 21.001,13.482 6.869,5.444 12.659,11.427 17.37,17.954 4.71,6.524 8.144,14.194 10.306,23.009 2.159,8.815 2.462,18.104 0.907,27.871 C 96.316,112.174 89.813,125.289 79.4,135.789 68.984,146.29 56.303,151.54 41.352,151.54 M -94.891,-63.779 c 1.987,-4.841 5.098,-8.795 9.334,-11.861 4.234,-3.069 8.987,-4.732 14.26,-4.991 l 4.019,-0.259 v -1.037 h -58.206 v 1.037 l 2.723,0.129 c 4.148,0.26 7.324,2.139 9.528,5.639 2.203,3.5 2.527,7.15 0.972,10.954 L -136.632,0 c 7.085,-2.248 13.567,-3.976 19.445,-5.185 z m 56.52,60.279 c 1.037,0 2.593,0.085 4.667,0.259 v 26.186 c -1.815,0.95 -6.051,3.196 -12.704,6.741 -6.656,3.542 -11.453,6.07 -14.39,7.583 -2.938,1.511 -7.044,3.607 -12.314,6.287 -5.273,2.678 -10.112,5.034 -14.519,7.065 -4.408,2.03 -8.815,3.996 -13.223,5.899 -2.42,1.037 -5.272,2.181 -8.555,3.435 -3.285,1.252 -7.606,2.829 -12.963,4.731 -5.36,1.9 -10.675,3.565 -15.945,4.991 -5.272,1.426 -10.847,2.765 -16.723,4.019 -5.877,1.252 -11.258,1.944 -16.139,2.074 -4.883,0.129 -9.291,-0.217 -13.223,-1.037 -3.933,-0.823 -6.957,-2.573 -9.074,-5.25 -2.119,-2.68 -3.003,-6.18 -2.657,-10.501 0.26,-3.285 1.122,-6.481 2.592,-9.592 1.469,-3.111 3.543,-6.073 6.222,-8.88 2.678,-2.809 5.099,-5.143 7.26,-7 2.159,-1.86 4.882,-4.041 8.167,-6.547 10.889,-8.211 25.321,-15.037 43.297,-20.481 25.839,-7.952 55.914,-11.278 90.224,-9.982 m 143.373,-46.149 c 17.889,-9.68 35.41,-16.637 52.565,-20.871 17.154,-4.235 34.807,-5.185 52.955,-2.852 0,-0.087 -0.045,-0.129 -0.13,-0.129 -10.976,-2.939 -19.813,-5.036 -26.509,-6.287 -6.698,-1.254 -13.893,-1.989 -21.584,-2.204 -7.692,-0.215 -15.06,0.626 -22.102,2.528 -7.044,1.9 -14.801,4.881 -23.269,8.944 -9.94,4.839 -21.649,11.904 -35.131,21.195 C 68.315,-40.036 54.919,-30.68 41.612,-21.26 28.302,-11.841 17.456,-4.926 9.074,-0.518 8.209,-0.606 5.834,-0.952 1.944,-1.556 -2.119,-2.333 -8.211,-3.241 -16.334,-4.278 V -63.26 c 0,-4.582 1.576,-8.514 4.732,-11.797 3.154,-3.285 7.021,-5.055 11.602,-5.315 l 4.018,-0.259 v -1.037 h -20.352 -17.5 -20.223 v 1.037 l 4.409,0.259 c 4.491,0.26 8.251,1.987 11.277,5.186 3.024,3.196 4.537,7.042 4.537,11.537 v 57.686 c -8.73,-0.606 -18.537,-0.822 -29.426,-0.648 -39.237,0.778 -71.774,7.82 -97.614,21.13 -4.406,2.246 -8.944,5.055 -13.61,8.426 -4.667,3.37 -9.185,7.302 -13.547,11.796 -4.365,4.493 -7.823,8.987 -10.371,13.482 -2.55,4.493 -3.522,9.095 -2.917,13.806 0.604,4.709 3.242,8.835 7.908,12.38 8.123,6.222 22.382,6.87 42.779,1.944 21.259,-5.272 38.932,-10.889 53.019,-16.852 C -81.885,52.76 -60.582,42.26 -33.704,28 v 107.465 c 0,4.493 -1.556,8.362 -4.667,11.602 -3.111,3.241 -6.915,4.991 -11.408,5.25 l -4.278,0.26 v 1.166 H 56.779 c 14.69,0 27.482,-4.861 38.371,-14.583 10.889,-9.723 17.801,-21.93 20.741,-36.621 2.074,-10.286 1.231,-20.786 -2.528,-31.501 C 109.603,60.322 103.511,50.382 95.085,41.223 86.659,32.062 75.748,23.895 62.353,16.723 48.956,9.548 34.178,4.363 18.018,1.167 28.389,-4.106 43.426,-12.769 63.13,-24.824 82.834,-36.88 96.791,-45.156 105.002,-49.649 m -357.266,-14 c -1.383,-4.063 -0.887,-7.843 1.491,-11.343 2.376,-3.5 5.681,-5.295 9.917,-5.38 l 13.871,-0.518 v -1.037 h -58.205 v 1.037 l 8.166,0.389 c 5.099,0.259 9.701,1.944 13.806,5.055 4.104,3.111 7.021,7.085 8.751,11.926 l 61.705,193.411 c 2.074,6.482 1.856,12.919 -0.649,19.315 l -1.685,4.278 h 17.5 l 27.611,-72.723 c -6.914,1.64 -13.049,2.677 -18.406,3.111 l -20.094,52.89 z" transform="matrix(1.3333333,0,0,-1.3333333,979.72667,714.05733)" clip-path="url(#cp7)" />
  </g>
</svg>